<svg width="38" height="36" viewBox="0 0 38 36" fill="none" xmlns="http://www.w3.org/2000/svg">
<path d="M18.767 24.2996C17.0183 24.2996 15.3413 23.637 14.1049 22.4575C12.8684 21.2781 12.1738 19.6785 12.1738 18.0105C12.1738 16.3425 12.8684 14.7429 14.1049 13.5635C15.3413 12.384 17.0183 11.7214 18.767 11.7214C20.5156 11.7214 22.1926 12.384 23.429 13.5635C24.6655 14.7429 25.3601 16.3425 25.3601 18.0105C25.3601 19.6785 24.6655 21.2781 23.429 22.4575C22.1926 23.637 20.5156 24.2996 18.767 24.2996ZM32.7633 19.7535C32.8386 19.1785 32.8952 18.6035 32.8952 18.0105C32.8952 17.4175 32.8386 16.8246 32.7633 16.2136L36.738 13.2847C37.096 13.0152 37.1901 12.53 36.9641 12.1347L33.1966 5.91753C32.9705 5.52222 32.4619 5.3605 32.0475 5.52222L27.3569 7.3191C26.3773 6.61831 25.3601 6.00738 24.1733 5.55816L23.4764 0.796439C23.4381 0.584798 23.3225 0.392909 23.1501 0.254774C22.9777 0.116638 22.7596 0.0411735 22.5345 0.0417513H14.9994C14.5285 0.0417513 14.1329 0.365189 14.0575 0.796439L13.3606 5.55816C12.1738 6.00738 11.1566 6.61831 10.177 7.3191L5.48643 5.52222C5.072 5.3605 4.56339 5.52222 4.33734 5.91753L0.569813 12.1347C0.324924 12.53 0.43795 13.0152 0.795865 13.2847L4.7706 16.2136C4.69525 16.8246 4.63874 17.4175 4.63874 18.0105C4.63874 18.6035 4.69525 19.1785 4.7706 19.7535L0.795865 22.7363C0.43795 23.0058 0.324924 23.491 0.569813 23.8863L4.33734 30.1035C4.56339 30.4988 5.072 30.6425 5.48643 30.4988L10.177 28.6839C11.1566 29.4027 12.1738 30.0136 13.3606 30.4628L14.0575 35.2246C14.1329 35.6558 14.5285 35.9792 14.9994 35.9792H22.5345C23.0054 35.9792 23.401 35.6558 23.4764 35.2246L24.1733 30.4628C25.3601 29.9957 26.3773 29.4027 27.3569 28.6839L32.0475 30.4988C32.4619 30.6425 32.9705 30.4988 33.1966 30.1035L36.9641 23.8863C37.1901 23.491 37.096 23.0058 36.738 22.7363L32.7633 19.7535Z" fill="white"/>
</svg>
