<svg width="22" height="20" viewBox="0 0 22 20" fill="none" xmlns="http://www.w3.org/2000/svg">
<path d="M2 20C1.45 20 0.979333 19.8043 0.588 19.413C0.196667 19.0217 0.000666667 18.5507 0 18V6C0 5.45 0.196 4.97933 0.588 4.588C0.98 4.19667 1.45067 4.00067 2 4H5.15L7 2H13V4H7.875L6.05 6H2V18H18V9H20V18C20 18.55 19.8043 19.021 19.413 19.413C19.0217 19.805 18.5507 20.0007 18 20H2ZM18 6V4H16V2H18V0H20V2H22V4H20V6H18ZM10 16.5C11.25 16.5 12.3127 16.0627 13.188 15.188C14.0633 14.3133 14.5007 13.2507 14.5 12C14.5 10.75 14.0627 9.68767 13.188 8.813C12.3133 7.93833 11.2507 7.50067 10 7.5C8.75 7.5 7.68767 7.93767 6.813 8.813C5.93833 9.68833 5.50067 10.7507 5.5 12C5.5 13.25 5.93767 14.3127 6.813 15.188C7.68833 16.0633 8.75067 16.5007 10 16.5ZM10 14.5C9.3 14.5 8.70833 14.2583 8.225 13.775C7.74167 13.2917 7.5 12.7 7.5 12C7.5 11.3 7.74167 10.7083 8.225 10.225C8.70833 9.74167 9.3 9.5 10 9.5C10.7 9.5 11.2917 9.74167 11.775 10.225C12.2583 10.7083 12.5 11.3 12.5 12C12.5 12.7 12.2583 13.2917 11.775 13.775C11.2917 14.2583 10.7 14.5 10 14.5Z" fill="#777777"/>
</svg>
