<svg width="18" height="20" viewBox="0 0 18 20" fill="none" xmlns="http://www.w3.org/2000/svg">
<path id="Vector" d="M1 5H16.7772M6.91643 9V15M10.8607 9V15M1.98607 5L2.97214 17C2.97214 17.5304 3.17992 18.0391 3.54977 18.4142C3.91962 18.7893 4.42124 19 4.94429 19H12.8329C13.3559 19 13.8575 18.7893 14.2274 18.4142C14.5972 18.0391 14.805 17.5304 14.805 17L15.7911 5M5.93036 5V2C5.93036 1.73478 6.03425 1.48043 6.21918 1.29289C6.4041 1.10536 6.65491 1 6.91643 1H10.8607C11.1222 1 11.3731 1.10536 11.558 1.29289C11.7429 1.48043 11.8468 1.73478 11.8468 2V5" stroke="#359EFF" stroke-width="2" stroke-linecap="round" stroke-linejoin="round"/>
</svg>
