<svg width="21" height="21" viewBox="0 0 21 21" fill="none" xmlns="http://www.w3.org/2000/svg">
<g clip-path="url(#clip0_2124_222)">
<path d="M10.5 1.75C15.3326 1.75 19.25 5.66738 19.25 10.5C19.25 15.3326 15.3326 19.25 10.5 19.25C5.66738 19.25 1.75 15.3326 1.75 10.5C1.75 5.66738 5.66738 1.75 10.5 1.75ZM10.5 3.5C8.64348 3.5 6.86301 4.2375 5.55025 5.55025C4.2375 6.86301 3.5 8.64348 3.5 10.5C3.5 12.3565 4.2375 14.137 5.55025 15.4497C6.86301 16.7625 8.64348 17.5 10.5 17.5C12.3565 17.5 14.137 16.7625 15.4497 15.4497C16.7625 14.137 17.5 12.3565 17.5 10.5C17.5 8.64348 16.7625 6.86301 15.4497 5.55025C14.137 4.2375 12.3565 3.5 10.5 3.5ZM10.5 14C10.7321 14 10.9546 14.0922 11.1187 14.2563C11.2828 14.4204 11.375 14.6429 11.375 14.875C11.375 15.1071 11.2828 15.3296 11.1187 15.4937C10.9546 15.6578 10.7321 15.75 10.5 15.75C10.2679 15.75 10.0454 15.6578 9.88128 15.4937C9.71719 15.3296 9.625 15.1071 9.625 14.875C9.625 14.6429 9.71719 14.4204 9.88128 14.2563C10.0454 14.0922 10.2679 14 10.5 14ZM10.5 5.6875C11.237 5.68752 11.951 5.94419 12.5193 6.4134C13.0876 6.88262 13.4748 7.53509 13.6144 8.25876C13.7539 8.98242 13.6372 9.73209 13.2841 10.379C12.931 11.0259 12.3636 11.5297 11.6795 11.8038C11.5787 11.842 11.4876 11.9021 11.4126 11.9796C11.3741 12.0234 11.368 12.0794 11.3689 12.1371L11.375 12.25C11.3748 12.473 11.2894 12.6875 11.1363 12.8497C10.9832 13.0119 10.7739 13.1095 10.5513 13.1225C10.3286 13.1356 10.1094 13.0632 9.9384 12.92C9.76737 12.7769 9.65747 12.5738 9.63112 12.3524L9.625 12.25V12.0312C9.625 11.0224 10.4388 10.4169 11.0285 10.1797C11.2685 10.0839 11.4779 9.92448 11.6342 9.71861C11.7904 9.51274 11.8876 9.2682 11.9154 9.01124C11.9432 8.75428 11.9004 8.49461 11.7917 8.26012C11.683 8.02563 11.5125 7.82518 11.2985 7.68029C11.0844 7.5354 10.835 7.45155 10.5769 7.43774C10.3188 7.42392 10.0619 7.48067 9.83359 7.60189C9.60533 7.7231 9.41439 7.90421 9.28129 8.12576C9.14819 8.3473 9.07796 8.60092 9.07812 8.85938C9.07812 9.09144 8.98594 9.314 8.82184 9.47809C8.65775 9.64219 8.43519 9.73438 8.20312 9.73438C7.97106 9.73438 7.7485 9.64219 7.58441 9.47809C7.42031 9.314 7.32812 9.09144 7.32812 8.85938C7.32812 8.01814 7.6623 7.21136 8.25715 6.61652C8.85199 6.02168 9.65877 5.6875 10.5 5.6875Z" fill="#ACACAC"/>
</g>
<defs>
<clipPath id="clip0_2124_222">
<rect width="21" height="21" fill="white"/>
</clipPath>
</defs>
</svg>
