<svg width="27" height="27" viewBox="0 0 27 27" fill="none" xmlns="http://www.w3.org/2000/svg">
<mask id="mask0_176_68" style="mask-type:alpha" maskUnits="userSpaceOnUse" x="0" y="0" width="27" height="27">
<rect width="27" height="27" fill="#D9D9D9"/>
</mask>
<g mask="url(#mask0_176_68)">
<path d="M6.25 26.625C5.63125 26.625 5.10156 26.4047 4.66094 25.9641C4.22031 25.5234 4 24.9937 4 24.375V13.125C4 12.5063 4.22031 11.9766 4.66094 11.5359C5.10156 11.0953 5.63125 10.875 6.25 10.875H10.75V13.125H6.25V24.375H22V13.125H17.5V10.875H22C22.6187 10.875 23.1484 11.0953 23.5891 11.5359C24.0297 11.9766 24.25 12.5063 24.25 13.125V24.375C24.25 24.9937 24.0297 25.5234 23.5891 25.9641C23.1484 26.4047 22.6187 26.625 22 26.625H6.25ZM14.125 21L9.625 16.5L11.2 14.925L13 16.6969V3H15.25V16.6969L17.05 14.925L18.625 16.5L14.125 21Z" fill="#CF7000"/>
</g>
</svg>
