<svg width="23" height="24" viewBox="0 0 23 24" fill="none" xmlns="http://www.w3.org/2000/svg">
<path d="M19.4831 3.95359C19.3018 3.77014 19.0744 3.64117 18.8259 3.58087C18.5774 3.52056 18.3173 3.53125 18.0744 3.61176L4.05397 8.37785C3.79395 8.46181 3.56417 8.62243 3.39367 8.83941C3.22316 9.05638 3.11958 9.31999 3.09599 9.59693C3.0724 9.87387 3.12988 10.1517 3.26115 10.3954C3.39243 10.6391 3.59161 10.8376 3.83355 10.966L9.65064 13.896L12.5256 19.8438C12.6412 20.0766 12.818 20.2721 13.0363 20.4083C13.2547 20.5446 13.5059 20.6163 13.7619 20.6154H13.8577C14.1319 20.5948 14.3937 20.4906 14.609 20.3165C14.8243 20.1423 14.9833 19.9062 15.0652 19.6387L19.809 5.38927C19.8937 5.14309 19.908 4.87745 19.8503 4.62328C19.7927 4.36911 19.6653 4.13686 19.4831 3.95359ZM4.64814 9.72563L16.8861 5.56507L10.0915 12.4896L4.64814 9.72563ZM13.829 19.0722L11.1073 13.5248L17.9019 6.60033L13.829 19.0722Z" fill="#444444"/>
</svg>
